<svg width="38" height="44" viewBox="0 0 38 44" fill="none" xmlns="http://www.w3.org/2000/svg">
<path d="M10.6434 2.27323C10.6866 2.05436 10.6854 1.82904 10.6399 1.61063C10.5945 1.39222 10.5056 1.18516 10.3786 1.00172C10.2516 0.81829 10.0891 0.662218 9.9007 0.542758C9.71228 0.423298 9.50179 0.342883 9.28172 0.306278C9.06164 0.269674 8.83646 0.277625 8.61952 0.329662C8.40258 0.381698 8.19829 0.47676 8.01876 0.609212C7.83924 0.741664 7.68814 0.908811 7.57441 1.10074C7.46068 1.29268 7.38664 1.50549 7.35669 1.72657L0.690021 41.7266C0.646801 41.9454 0.647964 42.1708 0.69344 42.3892C0.738915 42.6076 0.827778 42.8146 0.954761 42.9981C1.08174 43.1815 1.24426 43.3376 1.43268 43.457C1.6211 43.5765 1.83158 43.6569 2.05166 43.6935C2.27173 43.7301 2.49691 43.7222 2.71386 43.6701C2.9308 43.6181 3.13509 43.523 3.31461 43.3906C3.49413 43.2581 3.64524 43.091 3.75897 42.8991C3.87269 42.7071 3.94673 42.4943 3.97669 42.2732L6.21002 28.8732C8.89669 29.2666 11.8 29.3966 14.0867 30.9999C15.5015 32.0165 17.1375 32.6826 18.86 32.9432C22.08 33.4299 24.96 31.6599 28.14 32.1632L32.4367 32.8099C33.3034 32.9432 34.2034 32.2766 34.3334 31.4099L37.28 11.6299L37.2934 11.6166C37.3386 11.1811 37.2168 10.7448 36.9526 10.3958C36.6883 10.0467 36.3014 9.81112 35.87 9.73657L31.5734 9.0899C28.3634 8.61323 25.4767 10.3332 22.2967 9.85657C20.8705 9.63998 19.5138 9.09574 18.3334 8.26657C15.87 6.54323 12.9367 6.25657 10.0467 5.8499L10.6467 2.2699L10.6434 2.27323ZM8.67669 14.0666L9.77669 7.49323C11.7734 7.76657 13.8867 7.92323 15.7367 8.72323L14.7534 15.2732C12.8534 14.4966 10.71 14.3466 8.68002 14.0666H8.67669ZM6.48669 27.2332L7.58669 20.6532C9.65335 20.9399 11.8434 21.0866 13.78 21.8799L14.78 15.2932C16.9734 16.1932 18.6434 17.7366 21.09 18.0966L22.09 11.4966C24.55 11.8666 26.5867 10.9066 28.95 10.7166L27.95 17.2699C25.5834 17.4699 23.5367 18.4699 21.0834 18.1032L20.13 24.6966C17.6767 24.3299 16.0034 22.7799 13.8 21.8832L12.8 28.4699C10.8167 27.6732 8.59002 27.5332 6.48669 27.2332ZM20.1334 24.6999C22.58 25.0666 24.6367 24.0599 27.0034 23.8632L27.95 17.2699C30.1334 17.0699 32.3667 17.6399 34.51 17.9666L33.5767 24.5532C31.43 24.2299 29.19 23.6566 27.0067 23.8632L26.0067 30.4499C23.6434 30.6099 21.5567 31.6499 19.1334 31.2832L20.1334 24.6966V24.6999Z" fill="#5162FF"/>
</svg>
