<svg width="34" height="46" viewBox="0 0 34 46" fill="none" xmlns="http://www.w3.org/2000/svg">
<path d="M8.50381 0.441406V6.80859C10.9257 2.82519 13.8939 0.695801 17.0101 0.731934C20.1288 0.768066 23.0741 2.9502 25.496 6.81172V0.441406H8.50381ZM0.86084 2.39453C1.19434 3.31318 1.99854 4.30273 3.07412 5.10938C4.20234 5.95566 5.58682 6.56543 6.746 6.78867V2.39453H0.86084ZM27.2538 2.39473V6.78867C28.413 6.56553 29.7975 5.95566 30.9257 5.10947C32.0013 4.30283 32.8056 3.31357 33.139 2.39482H27.2538V2.39473ZM17.0224 3.17578C14.4771 3.17578 12.4325 5.22031 12.4325 7.76562C12.4325 10.3109 14.4771 12.3555 17.0224 12.3555C19.5677 12.3555 21.6122 10.3109 21.6122 7.76562C21.6122 5.22031 19.5677 3.17578 17.0224 3.17578ZM10.7999 6.5127C10.4963 6.93927 10.2097 7.37777 9.94102 7.82715L8.50381 6.96484V21.1348C10.9257 17.1514 13.8939 15.0219 17.0101 15.058C20.1289 15.0941 23.0742 17.2764 25.496 21.1379V6.95117L24.0655 7.83809C23.8144 7.43244 23.5488 7.0359 23.2693 6.64922C23.3357 7.01766 23.3694 7.39125 23.3699 7.76562C23.3699 11.2609 20.5174 14.1133 17.0223 14.1133C13.5271 14.1133 10.6746 11.2609 10.6746 7.76562C10.6746 7.33691 10.718 6.91797 10.7998 6.5127H10.7999ZM0.86084 16.8477C1.19434 17.7663 1.99854 18.7559 3.07412 19.5625C4.20234 20.4088 5.58682 21.0186 6.746 21.2418V16.8477H0.86084ZM27.2538 16.8479V21.2418C28.413 21.0187 29.7975 20.4088 30.9257 19.5626C32.0013 18.756 32.8056 17.7667 33.139 16.8479H27.2538V16.8479ZM10.6921 20.9932C10.4284 21.371 10.1779 21.758 9.94111 22.1533L8.50381 21.2908V34.9334C10.1107 32.2908 11.9583 30.4648 13.9296 29.5452C14.8629 29.0304 15.9116 28.7608 16.9774 28.7617C18.2169 28.7617 19.3747 29.1219 20.354 29.7407C22.2187 30.7207 23.9624 32.4914 25.496 34.9367V21.2773L24.0655 22.1641C23.8419 21.8034 23.6071 21.4497 23.3614 21.1037C23.3673 21.2143 23.37 21.3256 23.37 21.4375C23.37 24.9328 20.5177 27.7852 17.0224 27.7852C13.5272 27.7852 10.6747 24.9328 10.6747 21.4375C10.6747 21.2881 10.6818 21.1399 10.6921 20.9932ZM0.86084 30.5996C1.19443 31.5183 1.99854 32.5078 3.07412 33.3145C4.20234 34.1605 5.58682 34.7705 6.746 34.9938V30.5996H0.86084ZM27.2538 30.5996V34.9938C28.413 34.7706 29.7975 34.1604 30.9257 33.3144C32.0012 32.5077 32.8054 31.5185 33.139 30.5997H27.2538V30.5996ZM16.9999 30.751C14.4546 30.751 12.4101 32.7954 12.4101 35.3408C12.4101 37.886 14.4546 39.9307 16.9999 39.9307C19.5452 39.9307 21.5897 37.886 21.5897 35.3408C21.5897 32.7954 19.5452 30.751 16.9999 30.751ZM23.3183 34.8424C23.3222 34.931 23.3251 35.0195 23.3251 35.109C23.3251 38.6043 20.4726 41.4566 16.9774 41.4566C13.4821 41.4566 10.6298 38.6043 10.6298 35.109C10.6298 35.0297 10.6327 34.9511 10.6356 34.8725C10.3927 35.2249 10.161 35.5849 9.94102 35.952L8.50381 35.0898V42.4336H25.496V35.0762L24.0655 35.9631C23.829 35.5814 23.5798 35.2077 23.3185 34.8426H23.3182L23.3183 34.8424ZM11.6288 44.1914V45.5586H22.371V44.1914H11.6288Z" fill="#5162FF"/>
</svg>
