<svg width="30" height="42" viewBox="0 0 30 42" fill="none" xmlns="http://www.w3.org/2000/svg">
<path d="M19.1667 0.166748C20.2718 0.166748 21.3316 0.605735 22.113 1.38714C22.8944 2.16854 23.3334 3.22835 23.3334 4.33341V7.28341C27.0126 8.89175 29.5834 12.5626 29.5834 16.8334V25.1667C29.5837 27.194 28.9926 29.1774 27.8824 30.8737C26.7723 32.57 25.1914 33.9056 23.3334 34.7167V37.6667C23.3334 38.7718 22.8944 39.8316 22.113 40.613C21.3316 41.3944 20.2718 41.8334 19.1667 41.8334H10.8334C9.72835 41.8334 8.66854 41.3944 7.88714 40.613C7.10574 39.8316 6.66675 38.7718 6.66675 37.6667V34.7167C4.80881 33.9056 3.22789 32.57 2.11773 30.8737C1.00758 29.1774 0.416436 27.194 0.416748 25.1667V16.8334C0.416436 14.8061 1.00758 12.8228 2.11773 11.1265C3.22789 9.43016 4.80881 8.09457 6.66675 7.28341V4.33341C6.66675 3.22835 7.10574 2.16854 7.88714 1.38714C8.66854 0.605735 9.72835 0.166748 10.8334 0.166748H19.1667ZM19.1667 35.5834H10.8334V37.6667H19.1667V35.5834ZM19.1667 10.5834H10.8334C9.23923 10.5833 7.70526 11.1924 6.54537 12.2861C5.38548 13.3798 4.68736 14.8753 4.59383 16.4667L4.58342 16.8334V25.1667C4.58333 26.7609 5.19243 28.2949 6.28609 29.4548C7.37975 30.6147 8.87531 31.3128 10.4667 31.4063L10.8334 31.4167H19.1667C20.7609 31.4168 22.2949 30.8077 23.4548 29.7141C24.6147 28.6204 25.3128 27.1249 25.4063 25.5334L25.4167 25.1667V16.8334C25.4167 15.1758 24.7583 13.5861 23.5862 12.414C22.4141 11.2419 20.8244 10.5834 19.1667 10.5834ZM15.0001 12.6667C15.5526 12.6667 16.0825 12.8862 16.4732 13.2769C16.8639 13.6676 17.0834 14.1975 17.0834 14.7501V20.1376L19.4918 22.5459C19.8712 22.9388 20.0812 23.4651 20.0765 24.0113C20.0717 24.5576 19.8526 25.0801 19.4664 25.4664C19.0801 25.8526 18.5576 26.0717 18.0113 26.0765C17.4651 26.0812 16.9388 25.8712 16.5459 25.4917L13.5251 22.473C13.3284 22.2764 13.1733 22.0424 13.0688 21.7847C12.9643 21.527 12.9126 21.251 12.9167 20.973V14.7501C12.9167 14.1975 13.1362 13.6676 13.5269 13.2769C13.9176 12.8862 14.4475 12.6667 15.0001 12.6667ZM19.1667 4.33341H10.8334V6.41675H19.1667V4.33341Z" fill="#5162FF"/>
</svg>
