<svg width="42" height="33" viewBox="0 0 42 33" fill="none" xmlns="http://www.w3.org/2000/svg">
<path fill-rule="evenodd" clip-rule="evenodd" d="M13.3795 13.5689C13.0216 14.0097 12.369 14.0643 11.9427 13.6892L6.38026 8.79487C5.68094 8.17954 4.59418 8.77042 4.73043 9.69189L6.63362 22.5631C6.70614 23.0535 7.12707 23.4168 7.62286 23.4168H34.4443C34.9412 23.4168 35.3627 23.052 35.434 22.5602L37.3248 9.51744C37.4576 8.60124 36.3814 8.01201 35.6811 8.61749L29.7942 13.7071C29.3611 14.0815 28.7027 14.0166 28.351 13.5649L21.7984 5.14668C21.4032 4.63906 20.6386 4.63115 20.233 5.13048L13.3795 13.5689ZM41.0312 4.86053L38.0304 25.5602C37.9591 26.052 37.5376 26.4168 37.0408 26.4168H5.03383C4.53805 26.4168 4.11711 26.0535 4.04459 25.5631L0.997908 4.95844C0.934882 4.53602 1.00321 4.10443 1.19364 3.72213C1.38407 3.33983 1.68739 3.0253 2.06253 2.82113C2.43768 2.61696 2.8665 2.53303 3.29094 2.58069C3.71537 2.62836 4.1149 2.80532 4.43541 3.08761L11.5815 9.37542C12.0078 9.75048 12.6604 9.69583 13.0183 9.25511L19.425 1.36678C19.6228 1.12367 19.8728 0.928319 20.1565 0.795259C20.4403 0.662199 20.7504 0.594863 21.0637 0.598267C21.3771 0.601671 21.6857 0.675727 21.9664 0.814919C22.2472 0.954111 22.493 1.15485 22.6854 1.40219L28.7783 9.22972C29.1299 9.68148 29.7884 9.74638 30.2214 9.37195L37.6083 2.98553C37.9297 2.70826 38.3281 2.53576 38.7502 2.49112C39.1722 2.44647 39.5979 2.53182 39.9702 2.73573C40.3424 2.93964 40.6435 3.25239 40.8331 3.63212C41.0228 4.01185 41.0919 4.44044 41.0312 4.86053ZM37.6667 29.5001C37.6667 28.9478 37.2189 28.5001 36.6667 28.5001H5.33332C4.78104 28.5001 4.33332 28.9478 4.33332 29.5001V30.5834C4.33332 30.9042 4.40731 31.2174 4.54583 31.5001C4.6459 31.7044 4.77965 31.8927 4.94352 32.0566C5.33422 32.4473 5.86412 32.6668 6.41666 32.6668H35.5833C36.1359 32.6668 36.6658 32.4473 37.0565 32.0566C37.2203 31.8927 37.3541 31.7044 37.4542 31.5001C37.5927 31.2174 37.6667 30.9042 37.6667 30.5834V29.5001Z" fill="#5162FF"/>
</svg>
