<svg width="36" height="25" viewBox="0 0 36 25" fill="none" xmlns="http://www.w3.org/2000/svg">
<path d="M0 2.5C0 1.11929 0.970949 0 2.16867 0H33.8313C35.0291 0 36 1.11929 36 2.5C36 3.88071 35.0291 5 33.8313 5H2.16868C0.97095 5 0 3.88071 0 2.5Z" fill="#5162FF"/>
<path d="M0 12.5C0 11.1193 0.970949 10 2.16867 10H33.8313C35.0291 10 36 11.1193 36 12.5C36 13.8807 35.0291 15 33.8313 15H2.16868C0.97095 15 0 13.8807 0 12.5Z" fill="#5162FF"/>
<path d="M0 22.5C0 21.1193 0.970949 20 2.16867 20H33.8313C35.0291 20 36 21.1193 36 22.5C36 23.8807 35.0291 25 33.8313 25H2.16868C0.97095 25 0 23.8807 0 22.5Z" fill="#5162FF"/>
</svg>
