<svg width="281" height="42" viewBox="0 0 281 42" fill="none" xmlns="http://www.w3.org/2000/svg">
<path d="M20.9561 0C9.38235 0 0 9.40202 0 21C0 32.598 9.38235 42 20.9561 42C32.5298 42 41.9121 32.598 41.9121 21C41.9121 9.40202 32.5298 0 20.9561 0ZM26.6632 8.39538C27.776 8.39224 28.1042 9.70711 27.3173 10.4956L25.6487 12.1677C25.1552 12.6623 24.9995 13.4022 25.2517 14.0544L25.7068 15.231C25.8859 15.6938 26.2511 16.0598 26.713 16.2392L27.887 16.6953C28.5379 16.948 29.2763 16.792 29.7698 16.2974L31.1664 14.898C32.0798 13.9827 33.5988 14.3739 33.523 15.6661C33.428 17.2859 32.7633 18.8785 31.5288 20.1157C29.8727 21.7751 27.5803 22.407 25.439 22.012C24.7679 21.8882 24.0529 22.029 23.5704 22.5124L13.7449 32.3563C13.0567 33.0458 11.9411 33.0457 11.2531 32.3562L9.62363 30.7233C8.93556 30.0338 8.93551 28.9159 9.62351 28.2263L19.4469 18.3802C19.9293 17.8966 20.0698 17.1801 19.9462 16.5076C19.552 14.3619 20.1826 12.0647 21.8386 10.4052C23.1713 9.06973 24.9166 8.40032 26.6632 8.39538ZM11.6164 28.6443C11.1434 29.1182 11.1434 29.8853 11.6164 30.3592C12.0894 30.8332 12.8548 30.8332 13.3278 30.3592C13.8008 29.8852 13.8008 29.1182 13.3278 28.6443C12.8151 28.1772 12.0582 28.2149 11.6164 28.6443Z" fill="#1C1C1C"/>
<path d="M56.5321 30.1054C54.4315 30.1054 52.9819 29.6162 52.1831 28.6379C51.6358 27.956 51.3621 27.0221 51.3621 25.8362C51.3621 25.2878 51.4213 24.6874 51.5396 24.0352L52.3162 19.5881C53.0115 15.6154 55.4374 13.6291 59.5941 13.6291C61.3101 13.6291 62.6118 13.9996 63.4994 14.7408C64.3869 15.4672 64.8307 16.4678 64.8307 17.7426C64.8307 18.2614 64.7567 18.7876 64.6088 19.3213C64.4757 19.8549 64.3425 20.2552 64.2094 20.522L63.9875 20.9222H60.0601C60.4447 20.3886 60.637 19.7734 60.637 19.0767C60.637 17.7426 60.0823 17.0755 58.9728 17.0755C57.4788 17.0755 56.5838 17.9427 56.288 19.6771L55.5336 23.9462C55.4596 24.3465 55.4226 24.7393 55.4226 25.1247C55.4226 26.1475 56.0217 26.6589 57.2199 26.6589C58.4329 26.6589 59.2095 26.0512 59.5497 24.8356H57.7303L58.174 22.3675H64.0541L63.6991 24.2798L63.5881 24.9246C62.9668 28.3785 60.6148 30.1054 56.5321 30.1054Z" fill="#1C1C1C"/>
<path d="M73.0983 29.7941L73.2314 26.3032H69.5259L68.4386 29.7941H64.2006L69.9031 13.7847H77.2254L77.3141 29.7941H73.0983ZM72.1885 17.6759L70.4356 23.3236H73.3423L73.5864 17.6759H72.1885Z" fill="#1C1C1C"/>
<path d="M88.6665 13.7847C90.3528 13.7847 91.551 14.1553 92.261 14.8965C92.7936 15.4598 93.0598 16.1713 93.0598 17.0311C93.0598 17.3275 93.0302 17.6388 92.9711 17.9649L92.6604 19.6993C92.4829 20.6628 92.1723 21.4411 91.7285 22.034C91.2995 22.6269 90.8188 23.0494 90.2862 23.3014L92.3054 29.7941H87.8233L85.9594 23.8128H84.5837L83.674 29.7941H79.4137L82.2317 13.7847H88.6665ZM87.2686 17.2534H85.6044L85.0275 21.1224H86.5807C87.3647 21.1224 87.9268 20.9371 88.2671 20.5665C88.6073 20.1811 88.7774 19.6771 88.7774 19.0545C88.7774 17.8538 88.2744 17.2534 87.2686 17.2534Z" fill="#1C1C1C"/>
<path d="M101.874 29.7941L102.007 26.3032H98.3019L97.2147 29.7941H92.9766L98.6791 13.7847H106.001L106.09 29.7941H101.874ZM100.965 17.6759L99.2117 23.3236H102.118L102.362 17.6759H100.965Z" fill="#1C1C1C"/>
<path d="M123.323 13.7847L120.527 29.7941H116.511L113.715 21.0334L112.206 29.7941H108.19L111.008 13.7847H115.135L117.886 21.9673L119.329 13.7847H123.323Z" fill="#1C1C1C"/>
<path d="M139.482 17.2534H134.023L131.827 29.7941H127.811L130.007 17.2534H124.527L125.148 13.7847H140.103L139.482 17.2534Z" fill="#1C1C1C"/>
<path d="M152.341 29.7941L152.474 26.3032H148.768L147.681 29.7941H143.443L149.146 13.7847H156.468L156.557 29.7941H152.341ZM151.431 17.6759L149.678 23.3236H152.585L152.829 17.6759H151.431Z" fill="#1C1C1C"/>
<path d="M162.743 25.2359C162.743 26.2587 163.475 26.7701 164.939 26.7701C166.419 26.7701 167.158 26.3106 167.158 25.3915C167.158 24.9024 166.907 24.5021 166.404 24.1908C165.901 23.8795 165.287 23.6201 164.562 23.4126C163.852 23.2051 163.135 22.9679 162.41 22.7011C161.7 22.4194 161.093 21.9895 160.59 21.4114C160.087 20.8185 159.836 20.0847 159.836 19.2101C159.836 15.4894 162.225 13.6291 167.003 13.6291C168.748 13.6291 170.065 13.9626 170.952 14.6296C171.855 15.2819 172.306 16.1935 172.306 17.3646C172.306 17.7945 172.247 18.2095 172.128 18.6098C172.025 18.9952 171.914 19.2694 171.796 19.4325L171.618 19.6993H167.691C168.016 19.3584 168.179 18.9285 168.179 18.4096C168.179 17.4461 167.55 16.9644 166.293 16.9644C164.71 16.9644 163.919 17.4684 163.919 18.4764C163.919 18.9804 164.17 19.3806 164.673 19.6771C165.176 19.9735 165.783 20.2107 166.493 20.3886C167.217 20.5516 167.942 20.7592 168.667 21.0112C169.392 21.2632 170.006 21.6856 170.509 22.2786C171.012 22.8567 171.263 23.6127 171.263 24.5466C171.263 26.4292 170.701 27.83 169.577 28.7491C168.453 29.6533 166.722 30.1054 164.385 30.1054C162.047 30.1054 160.45 29.6904 159.592 28.8602C158.956 28.2376 158.638 27.3779 158.638 26.2809C158.638 25.8659 158.682 25.4138 158.771 24.9246L158.837 24.5688H162.831L162.787 24.8356C162.757 24.9839 162.743 25.1173 162.743 25.2359Z" fill="#1C1C1C"/>
<path d="M177.131 25.2359C177.131 26.2587 177.863 26.7701 179.327 26.7701C180.807 26.7701 181.546 26.3106 181.546 25.3915C181.546 24.9024 181.295 24.5021 180.792 24.1908C180.289 23.8795 179.675 23.6201 178.95 23.4126C178.24 23.2051 177.523 22.9679 176.798 22.7011C176.088 22.4194 175.481 21.9895 174.978 21.4114C174.475 20.8185 174.224 20.0847 174.224 19.2101C174.224 15.4894 176.613 13.6291 181.391 13.6291C183.136 13.6291 184.453 13.9626 185.341 14.6296C186.243 15.2819 186.694 16.1935 186.694 17.3646C186.694 17.7945 186.635 18.2095 186.517 18.6098C186.413 18.9952 186.302 19.2694 186.184 19.4325L186.006 19.6993H182.079C182.404 19.3584 182.567 18.9285 182.567 18.4096C182.567 17.4461 181.938 16.9644 180.681 16.9644C179.098 16.9644 178.307 17.4684 178.307 18.4764C178.307 18.9804 178.558 19.3806 179.061 19.6771C179.564 19.9735 180.171 20.2107 180.881 20.3886C181.605 20.5516 182.33 20.7592 183.055 21.0112C183.78 21.2632 184.394 21.6856 184.897 22.2786C185.4 22.8567 185.651 23.6127 185.651 24.5466C185.651 26.4292 185.089 27.83 183.965 28.7491C182.841 29.6533 181.11 30.1054 178.773 30.1054C176.435 30.1054 174.838 29.6904 173.98 28.8602C173.344 28.2376 173.026 27.3779 173.026 26.2809C173.026 25.8659 173.07 25.4138 173.159 24.9246L173.225 24.5688H177.219L177.175 24.8356C177.145 24.9839 177.131 25.1173 177.131 25.2359Z" fill="#1C1C1C"/>
<path d="M194.093 13.7847L191.297 29.7941H187.281L190.099 13.7847H194.093Z" fill="#1C1C1C"/>
<path d="M198.669 25.2359C198.669 26.2587 199.402 26.7701 200.866 26.7701C202.345 26.7701 203.085 26.3106 203.085 25.3915C203.085 24.9024 202.833 24.5021 202.331 24.1908C201.828 23.8795 201.214 23.6201 200.489 23.4126C199.779 23.2051 199.061 22.9679 198.337 22.7011C197.627 22.4194 197.02 21.9895 196.517 21.4114C196.014 20.8185 195.763 20.0847 195.763 19.2101C195.763 15.4894 198.152 13.6291 202.93 13.6291C204.675 13.6291 205.992 13.9626 206.879 14.6296C207.782 15.2819 208.233 16.1935 208.233 17.3646C208.233 17.7945 208.174 18.2095 208.055 18.6098C207.952 18.9952 207.841 19.2694 207.722 19.4325L207.545 19.6993H203.618C203.943 19.3584 204.106 18.9285 204.106 18.4096C204.106 17.4461 203.477 16.9644 202.22 16.9644C200.637 16.9644 199.845 17.4684 199.845 18.4764C199.845 18.9804 200.097 19.3806 200.6 19.6771C201.103 19.9735 201.709 20.2107 202.419 20.3886C203.144 20.5516 203.869 20.7592 204.594 21.0112C205.319 21.2632 205.933 21.6856 206.435 22.2786C206.938 22.8567 207.19 23.6127 207.19 24.5466C207.19 26.4292 206.628 27.83 205.504 28.7491C204.379 29.6533 202.649 30.1054 200.311 30.1054C197.974 30.1054 196.377 29.6904 195.519 28.8602C194.883 28.2376 194.564 27.3779 194.564 26.2809C194.564 25.8659 194.609 25.4138 194.698 24.9246L194.764 24.5688H198.758L198.714 24.8356C198.684 24.9839 198.669 25.1173 198.669 25.2359Z" fill="#1C1C1C"/>
<path d="M224.64 17.2534H219.182L216.985 29.7941H212.969L215.165 17.2534H209.685L210.306 13.7847H225.261L224.64 17.2534Z" fill="#1C1C1C"/>
<path d="M230.89 29.7941L231.023 26.3032H227.318L226.23 29.7941H221.992L227.695 13.7847H235.017L235.106 29.7941H230.89ZM229.98 17.6759L228.227 23.3236H231.134L231.378 17.6759H229.98Z" fill="#1C1C1C"/>
<path d="M252.338 13.7847L249.542 29.7941H245.526L242.73 21.0334L241.222 29.7941H237.205L240.023 13.7847H244.15L246.902 21.9673L248.344 13.7847H252.338Z" fill="#1C1C1C"/>
<path d="M258.291 30.1054C256.175 30.1054 254.711 29.6459 253.897 28.7268C253.335 28.0746 253.054 27.1629 253.054 25.9919C253.054 25.4879 253.106 24.9468 253.209 24.3687L254.119 19.2546C254.785 15.5042 257.189 13.6291 261.331 13.6291C263.046 13.6291 264.348 13.9996 265.236 14.7408C266.123 15.4672 266.567 16.4678 266.567 17.7426C266.567 18.3355 266.478 18.9285 266.301 19.5214C266.138 20.0995 265.975 20.5294 265.813 20.8111L265.569 21.2558H261.641C262.129 20.6925 262.373 19.892 262.373 18.8544C262.373 18.3059 262.233 17.876 261.952 17.5647C261.671 17.2386 261.257 17.0755 260.709 17.0755C259.215 17.0755 258.328 17.9056 258.047 19.5659L257.27 24.0574C257.196 24.4428 257.159 24.8208 257.159 25.1914C257.159 26.1698 257.743 26.6589 258.912 26.6589C260.317 26.6589 261.16 25.8659 261.441 24.2798H265.435L265.324 24.9246C264.733 28.3785 262.388 30.1054 258.291 30.1054Z" fill="#1C1C1C"/>
<path d="M278.182 29.7941H267.043L269.861 13.7847H281L280.379 17.2534H273.234L272.724 20.2552H278.626L278.004 23.7239H272.102L271.659 26.3254H278.803L278.182 29.7941Z" fill="#1C1C1C"/>
</svg>
