<svg width="31" height="30" viewBox="0 0 31 30" fill="none" xmlns="http://www.w3.org/2000/svg">
<path d="M15.2137 0C6.81138 0 0 6.71572 0 15C0 23.2843 6.81138 30 15.2137 30C23.6159 30 30.4273 23.2843 30.4273 15C30.4273 6.71572 23.6159 0 15.2137 0ZM19.3569 5.9967C20.1648 5.99446 20.403 6.93365 19.8318 7.49687L18.6204 8.69121C18.2621 9.0445 18.1491 9.57303 18.3322 10.0389L18.6626 10.8793C18.7926 11.2099 19.0577 11.4713 19.393 11.5994L20.2454 11.9252C20.7179 12.1057 21.2539 11.9943 21.6123 11.641L22.6262 10.6414C23.2893 9.98762 24.392 10.2671 24.337 11.1901C24.268 12.3471 23.7855 13.4847 22.8892 14.3683C21.687 15.5537 20.0227 16.005 18.4682 15.7229C17.981 15.6344 17.4619 15.735 17.1116 16.0803L9.97849 23.1117C9.4789 23.6041 8.66901 23.6041 8.16948 23.1116L6.98655 21.9452C6.48703 21.4527 6.48699 20.6542 6.98646 20.1616L14.118 13.1287C14.4683 12.7833 14.5702 12.2715 14.4805 11.7912C14.1944 10.2585 14.6522 8.61762 15.8544 7.43225C16.8218 6.47838 18.0889 6.00023 19.3569 5.9967ZM8.43326 20.4602C8.08986 20.7987 8.08986 21.3466 8.43326 21.6852C8.77663 22.0237 9.33231 22.0237 9.67568 21.6852C10.0191 21.3466 10.0191 20.7987 9.67568 20.4602C9.30348 20.1266 8.75396 20.1535 8.43326 20.4602Z" fill="#1C1C1C"/>
</svg>
